<?xml version="1.0" encoding="UTF-8"?>
<svg xmlns="http://www.w3.org/2000/svg" viewBox="0 0 256 256" fill="currentColor">
  <defs>
    <linearGradient id="g" x1="0" y1="0" x2="1" y2="1">
      <stop offset="0%" stop-color="#3b82f6"/>
      <stop offset="100%" stop-color="#7c3aed"/>
    </linearGradient>
  </defs>
  <g>
    <path d="M26 126c12-4 20 3 28 14 3 5 6 4 8 0 14-27 41-46 66-64 8-6 17-12 25-20 3-3 7-4 10-4-4 9-10 16-15 23-9 12-18 24-25 36-3 6-5 12-8 18-2 4-2 8-1 12 1 6 3 11 4 17 1 3 2 6 5 7 7 3 11 9 16 14 5 5 10 9 17 12 21 10 43 18 65 27 10 4 20 8 30 12 3 1 6 3 9 5-4 1-7 0-10-1-19-6-37-12-56-19-19-7-37-15-56-23-15-6-29-13-42-22-16-11-30-25-39-43-1-3-3-4-6-5-4-1-9-2-10-7v-2z" fill="url(#g)"/>
  </g>
</svg>
